<?xml version="1.0" encoding="utf-8"?>
<!-- Generator: Adobe Illustrator 16.0.0, SVG Export Plug-In . SVG Version: 6.00 Build 0)  -->
<!DOCTYPE svg PUBLIC "-//W3C//DTD SVG 1.1//EN" "http://www.w3.org/Graphics/SVG/1.1/DTD/svg11.dtd">
<svg version="1.1" id="Layer_1" xmlns="http://www.w3.org/2000/svg" xmlns:xlink="http://www.w3.org/1999/xlink" x="0px" y="0px"
	 width="20px" height="20px" viewBox="0 0 20 20" enable-background="new 0 0 20 20" xml:space="preserve">
<g opacity="0.2">
	<line fill="#FFFFFF" x1="0" y1="0" x2="0" y2="20"/>
	<g>
		<g>
			<g>
				<g>
					<rect x="-0.229" fill="#FFFFFF" width="0.444" height="0.959"/>
					<rect x="-0.229" y="1.429" fill="#FFFFFF" width="0.444" height="0.959"/>
					<rect x="-0.229" y="2.857" fill="#FFFFFF" width="0.444" height="0.959"/>
					<rect x="-0.229" y="4.286" fill="#FFFFFF" width="0.444" height="0.959"/>
					<rect x="-0.229" y="5.714" fill="#FFFFFF" width="0.444" height="0.959"/>
					<rect x="-0.229" y="7.143" fill="#FFFFFF" width="0.444" height="0.959"/>
					<rect x="-0.229" y="8.571" fill="#FFFFFF" width="0.444" height="0.959"/>
				</g>
			</g>
			<g>
				<g>
					<rect x="-0.229" y="10" fill="#FFFFFF" width="0.444" height="0.959"/>
					<rect x="-0.229" y="11.429" fill="#FFFFFF" width="0.444" height="0.959"/>
					<rect x="-0.229" y="12.857" fill="#FFFFFF" width="0.444" height="0.959"/>
					<rect x="-0.229" y="14.286" fill="#FFFFFF" width="0.444" height="0.959"/>
					<rect x="-0.229" y="15.714" fill="#FFFFFF" width="0.444" height="0.96"/>
					<rect x="-0.229" y="17.143" fill="#FFFFFF" width="0.444" height="0.96"/>
					<rect x="-0.229" y="18.571" fill="#FFFFFF" width="0.444" height="0.959"/>
				</g>
			</g>
		</g>
	</g>
</g>
<g opacity="0.2">
	<line fill="#FFFFFF" x1="0" y1="0" x2="20" y2="0"/>
	<g>
		<g>
			<g>
				<g>
					<rect y="-0.216" fill="#FFFFFF" width="0.959" height="0.444"/>
					<rect x="1.429" y="-0.216" fill="#FFFFFF" width="0.959" height="0.444"/>
					<rect x="2.857" y="-0.216" fill="#FFFFFF" width="0.959" height="0.444"/>
					<rect x="4.286" y="-0.216" fill="#FFFFFF" width="0.959" height="0.444"/>
					<rect x="5.714" y="-0.216" fill="#FFFFFF" width="0.959" height="0.444"/>
					<rect x="7.143" y="-0.216" fill="#FFFFFF" width="0.959" height="0.444"/>
					<rect x="8.571" y="-0.216" fill="#FFFFFF" width="0.959" height="0.444"/>
				</g>
			</g>
			<g>
				<g>
					<rect x="10" y="-0.216" fill="#FFFFFF" width="0.959" height="0.444"/>
					<rect x="11.429" y="-0.216" fill="#FFFFFF" width="0.959" height="0.444"/>
					<rect x="12.857" y="-0.216" fill="#FFFFFF" width="0.959" height="0.444"/>
					<rect x="14.286" y="-0.216" fill="#FFFFFF" width="0.959" height="0.444"/>
					<rect x="15.714" y="-0.216" fill="#FFFFFF" width="0.96" height="0.444"/>
					<rect x="17.143" y="-0.216" fill="#FFFFFF" width="0.96" height="0.444"/>
					<rect x="18.571" y="-0.216" fill="#FFFFFF" width="0.959" height="0.444"/>
				</g>
			</g>
		</g>
	</g>
</g>
<g opacity="0.2">
	<line fill="#FFFFFF" x1="20" y1="0" x2="20" y2="20"/>
	<g>
		<g>
			<g>
				<g>
					<rect x="19.771" fill="#FFFFFF" width="0.444" height="0.959"/>
					<rect x="19.771" y="1.429" fill="#FFFFFF" width="0.444" height="0.959"/>
					<rect x="19.771" y="2.857" fill="#FFFFFF" width="0.444" height="0.959"/>
					<rect x="19.771" y="4.286" fill="#FFFFFF" width="0.444" height="0.959"/>
					<rect x="19.771" y="5.714" fill="#FFFFFF" width="0.444" height="0.959"/>
					<rect x="19.771" y="7.143" fill="#FFFFFF" width="0.444" height="0.959"/>
					<rect x="19.771" y="8.571" fill="#FFFFFF" width="0.444" height="0.959"/>
				</g>
			</g>
			<g>
				<g>
					<rect x="19.771" y="10" fill="#FFFFFF" width="0.444" height="0.959"/>
					<rect x="19.771" y="11.429" fill="#FFFFFF" width="0.444" height="0.959"/>
					<rect x="19.771" y="12.857" fill="#FFFFFF" width="0.444" height="0.959"/>
					<rect x="19.771" y="14.286" fill="#FFFFFF" width="0.444" height="0.959"/>
					<rect x="19.771" y="15.714" fill="#FFFFFF" width="0.444" height="0.96"/>
					<rect x="19.771" y="17.143" fill="#FFFFFF" width="0.444" height="0.96"/>
					<rect x="19.771" y="18.571" fill="#FFFFFF" width="0.444" height="0.959"/>
				</g>
			</g>
		</g>
	</g>
</g>
<g opacity="0.2">
	<line fill="#FFFFFF" x1="20" y1="20" x2="0" y2="20"/>
	<g>
		<g>
			<g>
				<g>
					<rect x="19.041" y="19.771" fill="#FFFFFF" width="0.959" height="0.444"/>
					<rect x="17.612" y="19.771" fill="#FFFFFF" width="0.959" height="0.444"/>
					<rect x="16.184" y="19.771" fill="#FFFFFF" width="0.959" height="0.444"/>
					<rect x="14.755" y="19.771" fill="#FFFFFF" width="0.959" height="0.444"/>
					<rect x="13.326" y="19.771" fill="#FFFFFF" width="0.96" height="0.444"/>
					<rect x="11.897" y="19.771" fill="#FFFFFF" width="0.96" height="0.444"/>
					<rect x="10.47" y="19.771" fill="#FFFFFF" width="0.959" height="0.444"/>
				</g>
			</g>
			<g>
				<g>
					<rect x="9.041" y="19.771" fill="#FFFFFF" width="0.959" height="0.444"/>
					<rect x="7.612" y="19.771" fill="#FFFFFF" width="0.959" height="0.444"/>
					<rect x="6.184" y="19.771" fill="#FFFFFF" width="0.959" height="0.444"/>
					<rect x="4.755" y="19.771" fill="#FFFFFF" width="0.959" height="0.444"/>
					<rect x="3.327" y="19.771" fill="#FFFFFF" width="0.959" height="0.444"/>
					<rect x="1.898" y="19.771" fill="#FFFFFF" width="0.959" height="0.444"/>
					<rect x="0.47" y="19.771" fill="#FFFFFF" width="0.959" height="0.444"/>
				</g>
			</g>
		</g>
	</g>
</g>
</svg>
