<?xml version="1.0" encoding="utf-8"?>
<!-- Generator: Adobe Illustrator 16.0.0, SVG Export Plug-In . SVG Version: 6.00 Build 0)  -->
<!DOCTYPE svg PUBLIC "-//W3C//DTD SVG 1.1//EN" "http://www.w3.org/Graphics/SVG/1.1/DTD/svg11.dtd">
<svg version="1.1" id="Layer_1" xmlns="http://www.w3.org/2000/svg" xmlns:xlink="http://www.w3.org/1999/xlink" x="0px" y="0px"
	 width="274px" height="40px" viewBox="0 0 274 40" enable-background="new 0 0 274 40" xml:space="preserve">
<g>
	<path fill="#FFFFFF" d="M202.775,1c2.75,0,7.021,0.987,9.492,2.193l55.887,27.28c2.471,1.207,4.492,3.618,4.492,5.36
		s-2.25,3.167-5,3.167H6.673c-2.75,0-5-2.25-5-5V6c0-2.75,2.25-5,5-5H202.775z"/>
	<path fill="none" stroke="#FFFFFF" stroke-width="2" stroke-miterlimit="10" d="M202.775,1c2.75,0,7.021,0.987,9.492,2.193
		l55.887,27.28c2.471,1.207,4.492,3.618,4.492,5.36s-2.25,3.167-5,3.167H6.673c-2.75,0-5-2.25-5-5V6c0-2.75,2.25-5,5-5H202.775z"/>
</g>
</svg>
