<?xml version="1.0" encoding="utf-8"?>
<!-- Generator: Adobe Illustrator 16.0.0, SVG Export Plug-In . SVG Version: 6.00 Build 0)  -->
<!DOCTYPE svg PUBLIC "-//W3C//DTD SVG 1.1//EN" "http://www.w3.org/Graphics/SVG/1.1/DTD/svg11.dtd">
<svg version="1.1" id="Layer_1" xmlns="http://www.w3.org/2000/svg" xmlns:xlink="http://www.w3.org/1999/xlink" x="0px" y="0px"
	 width="604px" height="426px" viewBox="0 0 604 426" enable-background="new 0 0 604 426" xml:space="preserve">
<g id="XMLID_1_">
	<g>
		<path fill="#FFFFFF" d="M308.287,243.6c-16.57,0-30-13.434-30-30.013c0-16.554,13.43-29.987,30-29.987s30,13.434,30,29.987
			C338.287,230.166,324.857,243.6,308.287,243.6z"/>
	</g>
	<g>
		<path fill="none" stroke="#FFFFFF" stroke-width="12" stroke-miterlimit="10" d="M338.287,213.587
			c0,16.579-13.43,30.013-30,30.013s-30-13.434-30-30.013c0-16.554,13.43-29.987,30-29.987S338.287,197.033,338.287,213.587z"/>
	</g>
</g>
<line fill="#FFFFFF" stroke="#FFFFFF" stroke-width="20" stroke-miterlimit="10" x1="14.773" y1="219.661" x2="137.166" y2="89.903"/>
<line fill="#FFFFFF" stroke="#FFFFFF" stroke-width="20" stroke-miterlimit="10" x1="12.166" y1="207.524" x2="134.559" y2="337.281"/>
<line fill="#FFFFFF" stroke="#FFFFFF" stroke-width="20" stroke-miterlimit="10" x1="589.559" y1="219.661" x2="467.166" y2="89.903"/>
<line fill="#FFFFFF" stroke="#FFFFFF" stroke-width="20" stroke-miterlimit="10" x1="592.166" y1="207.524" x2="469.773" y2="337.281"/>
<line fill="#FFFFFF" stroke="#FFFFFF" stroke-width="18" stroke-miterlimit="10" x1="122.167" y1="213.587" x2="192.167" y2="213.587"/>
<line fill="#FFFFFF" stroke="#FFFFFF" stroke-width="18" stroke-miterlimit="10" x1="412.167" y1="213.624" x2="482.167" y2="213.624"/>
</svg>
